<?xml version="1.0" encoding="utf-8"?>
<svg version="1.1" id="Layer_1" xmlns="http://www.w3.org/2000/svg" xmlns:xlink="http://www.w3.org/1999/xlink" x="0px" y="0px"
	 viewBox="0 0 1920 1080" style="enable-background:new 0 0 1920 1080;" xml:space="preserve">
<g>
	<g>
		<path d="M1589.95,498.77c-2.09-1.15-2.92,1.55-3.94,2.95c-4,5.48-7.64,11.25-11.96,16.45c-18.96,22.79-38.87,44.61-62.18,63.21
			c-14.02,11.18-29.5,18.84-46.96,22.18c-17.48,3.34-29.96-5.46-33.21-22.87c-3.8-20.37-6.17-40.88-6.64-61.67
			c-0.22-9.57-0.72-19.37-4.69-28.51c-4.22-9.72-12.16-11.55-19.59-3.98c-10.46,10.66-16.32,24.32-23.21,37.22
			c-7.76,14.51-14.1,29.74-22.41,43.98c-0.56,0.97-0.21,3.08-2.23,2.37c-0.47-0.16-0.49-1.87-0.55-2.87
			c-0.78-14.05,2.78-27.59,4.87-41.29c2.41-15.75,6.36-31.22,9.28-46.86c3.49-18.73,7.29-37.44,9.2-56.47
			c1.39-13.83,4.55-27.58-1.02-41.21c-3.11-7.62-9.16-11.25-17.26-10.23c-8.25,1.04-13.26,6.8-18.4,12.41
			c-29.25,31.91-45.84,70.71-60.07,110.75c-7.78,21.89-15.24,43.89-24.29,65.31c-1.1,2.61-2.47,5.11-3.72,7.66
			c-2.25-2.69-1.34-5.92-1.21-8.85c1.03-22.57,4.92-45.02,3.13-63.22c0-15.58-0.09-26.64,0-37.67c0.05-3.64-0.91-6.74-3.24-9.44
			c-3.48-4.05-7.13-3.54-8.63,1.54c-1.47,5.01-3.07,10.22-3.13,15.36c-0.24,20.52-4.77,40.8-3.38,61.39
			c0.2,3.02-0.32,5.77-3.08,7.63c-13.78,9.3-28.6,16.21-45.04,19.28c-15.42,2.87-31.03,2.88-46.21-0.34
			c-14.66-3.11-28.68-8.82-38.5-21.11c-6.87-8.59-11.38-18.51-9.47-29.73c2.47-14.51,9.28-27.24,19.57-37.74
			c6.04-6.16,12.92-11.6,21.72-13.58c5.66-1.28,9,1.38,9.28,7.2c0.44,8.94-5.1,15.1-10.11,21.49c-5.9,7.52-14.04,12.44-21.27,18.42
			c-1.95,1.62-5.45,3.43-3.95,5.84c1.66,2.67,4.25-0.59,5.86-1.71c13.55-9.38,25.55-20.59,32.41-35.72
			c6.79-15,1.35-26.31-15.97-25.35c-16.78,0.93-29.48,9.57-38.66,22.52c-6.46,9.12-12.46,16.14-24.04,20.02
			c-36.64,12.29-69.7,32.16-101.94,53.16c-5.18,3.38-7.3,3.33-10.32-1.82c-8.64-14.74-22.23-18.98-38.36-17.08
			c-4.41,0.52-8.76,1.64-13.17,2.19c-1.69,0.21-4.06,0.86-5.08-0.97c-0.97-1.74,0.51-3.52,1.59-4.96
			c8.84-11.79,15.71-24.74,22.32-37.82c11.34-22.43,19.14-45.76,17.73-71.45c-0.83-14.98-12.7-31.67-30.37-30.52
			c-11.99,0.78-21.9,5.24-31.13,11.64c-37.89,26.29-66.49,61.22-91.18,99.65c-2.08,3.23-4.1,6.5-5.74,9.96
			c-0.01,0.02-0.02,0.04-0.03,0.06c-12.36,23.65-28.83,62.93-46.09,83.91c-6.84,8.32-13.95,16.69-23.18,21.91
			c-14.89,8.42-25.15,5.25-28.05-12.11c-1.41-8.45-1.26-17.51,0.05-26c3.35-21.7,10.39-42.53,17.22-63.35
			c3.74-11.39,7.91-22.66,9.2-34.67c0.29-2.66,1.14-6.44-2.72-7.29c-3.19-0.7-6.4,0.89-8.2,3.67c-2.25,3.49-3.59,7.57-5.9,11.01
			c-5.18,7.7-6.38,17.62-13.48,24.21c0.89-3.74,3.76-6.85,3.26-11.04c-2-16.75-19.97-25.31-35.07-17.38
			c-9.98,5.24-16.74,13.45-23.19,21.99c-10.34,13.7-17.19,28.71-15.15,46.61c0.41,3.61,1.72,6.76,3.68,9.22
			c-4.7,0.06-9.4-0.44-13.48-1.09c-6.81-1.08-16.89-3.31-20.73-9.79l0.24,0.39c0.03-53.47,5.15-66.33,5.01-119.8
			c-0.01-6.64,1.17-13.09,1.63-19.63c0.28-3.89,2.42-4.83,5.73-4.83c7.11,0.01,14.23-0.09,21.34-0.06c7.4,0.03,12.8-4.22,17.97-8.65
			c1.39-1.19,3.52-3.64,2.16-5.39c-1.59-2.06-4.36-1.2-6.35,0.44c-9.72,8.01-21.91,3.98-32.98,1.91c-3.67-0.68-7.01-1.4-7.74-5.64
			c-0.58-3.36,0.39-6.8,0.82-10.12c2.03-15.63,1.67-31.23,2.59-46.92c0.93-15.86,2.92-31.63,5-47.38
			c3.71-28.17,9.49-56.16,15.75-83.99c2.56-11.4,4.81-23.1,3.76-35.01h-3.16c-9.22,21.02-18.6,41.97-27.89,62.96
			c-17.67,39.94-35.72,79.7-51.88,120.28c-5.2,13.05-10.41,26.11-15.45,39.23c-1.08,2.81-2.48,5.64-4.96,7.47
			c-2.99,2.21-6.37,2.18-9.94,2.49c-8.83,0.76-17.65,1.52-26.47,2.28c-2.71,0.24-6.51,0.98-8.42-1.42c-1.6-2.01-1.59-5.17-1.56-7.59
			c0.03-1.83,0.06-3.7,0.36-5.5c4.18-24.87,4.06-50.13,7.16-75.14c2.7-21.8,5.69-43.64,7.12-65.61c1.1-16.74,5.14-33.25,4.21-50.13
			c-0.22-4.08,2.69-10.27-3.09-11.72c-6.16-1.55-7.01,5.3-8.76,9.17c-5.27,11.66-9.78,23.65-14.78,35.43
			c-8.17,19.23-16.26,38.5-26.6,56.73c-1.3,2.3-3.49,5.52-0.26,7.52c2.91,1.79,5.35-0.82,7.4-2.96c5.52-5.77,9.04-12.85,12.41-19.92
			c5.07-10.61,9.66-21.45,14.5-32.17c0.47-1.04,0.01-3.09,1.97-2.61c0.43,0.1,0.65,2.46,0.41,3.67c-0.82,4.11-2.3,8.13-2.82,12.27
			c-2.73,21.79-5.77,43.54-8.52,65.32c-3.42,27.08-5.59,54.21-7.37,81.4c-0.29,4.47-1.54,6.24-6.23,7.08
			c-8.12,1.44-16.28,0.84-24.36,1.78c-21.33,2.48-42.68,4.78-63.97,7.53c-7.99,1.04-16.05,2.16-23.67,5.11v4.74
			c4.23,3.51,9.09,5.36,14.57,4.93c14.91-1.17,29.83-2.33,44.72-3.81c16.17-1.61,32.28-3.87,48.46-5.26
			c8.72-0.75,9.37-0.15,8.69,8.42c-1.95,24.46-1.26,48.94-1.52,73.42c-0.13,12.71,2.51,25,4.79,37.37c0.79,4.3,2.26,7.97,7.44,8.73
			c5.92,0.87,8.83-2.68,10.66-7.27c6.45-16.2,13.02-32.35,18.87-48.76c8.41-23.58,16.17-47.4,24.36-71.07
			c2.87-8.29,8.9-8.98,16.75-9.09c10-0.13,19.99-0.77,29.93-1.89c1.98-0.22,6.2-1.4,7.92,0.19c1.7,1.57,1.08,5.76,1.11,7.75
			c0.84,48.9,0.76,80.17,4.82,128.5c-0.03,1.69,0.27,2.6,0.41,3.63c1.7,12.17,14.96,16.2,25.38,18.04
			c9.19,1.62,20.1,2.39,29.53-0.24c1.28-0.08,2.6-0.31,3.94-0.7c6.87-2,12.79-5.69,18.36-10.3c8.93-7.41,16.74-15.84,24.26-24.59
			c0.61-0.71,2.2-1.65,2.36-1.49c0.97,0.96-0.23,1.84-0.49,2.78c-3.48,12.58-6.85,25.15-7.47,38.34
			c-0.72,15.19-2.65,30.42,4.12,44.86c5.47,11.67,15.3,18.14,25.9,16.52c7.55-1.16,14.49-4.2,20.65-8.87
			c12.75-9.68,21.5-22.89,30.93-35.42c13.89-18.45,24.99-49.52,35.24-70.24c0.01-0.01,0.01-0.03,0.01-0.04
			c0.01-0.01,0.01-0.01,0.01-0.02c5.81-9.6,12.03-22.22,18.02-30.57c19.19-26.77,40.67-51.44,66.92-71.4
			c11.36-8.64,23.52-17.06,39.26-15.94c6.89,0.5,12.14,4.16,14.06,10.45c3.11,10.18,1.92,20.4-0.72,30.28
			c-6.45,24.19-18.16,46.09-30.74,67.57c-5.66,9.69-12.23,18.88-16.2,29.53c-3.39,9.1,0.22,14.51,9.83,14
			c4.45-0.23,8.62-1.64,12.82-3.24c9.79-3.74,19.77-6.77,30.51-6.21c8.06,0.42,14.93,5.88,18.2,13.97c3.3,8.17-2.3,11.31-7.53,14.89
			c-0.2,0.14-0.27,0.47-0.47,0.63c-37.06,30.15-70.7,63.8-101.61,100.15c-28.33,33.31-54.52,68.05-74.15,107.52
			c-17.54,35.26-29.08,71.56-28.04,111.42c0.35,13.4,3.51,25.35,12.01,35.62c10.12,12.22,22.03,21.78,39.19,18.57
			c20.83-3.88,38.45-14.48,54.41-28.11c22.2-18.95,39-42.32,54.54-66.67c17.36-27.2,31.5-55.94,42.14-86.52
			c5.76-16.54,10.58-33.24,14.8-50.2c4.61-18.57,8.28-37.44,9.74-56.35c2.25-29.08,4.72-58.26,3.51-87.52
			c-0.16-3.87,1.42-6.11,4.5-8.4c31.92-23.75,67.32-41.08,103.73-56.57c1.17-0.5,2.91-1.4,3.59-0.94c1.68,1.14,0.2,2.89-0.2,4.25
			c-7.67,25.88,9.28,51.25,30.35,62.85c13.22,7.27,27.45,9.68,42.04,10.82c11.55,0.9,23.31,0.82,34.49-2.17
			c16.68-4.45,32.84-10.55,46.3-21.99c3.98-3.39,4.7-1.48,4.7,2.44c-0.01,11.86,0.14,23.72-0.04,35.57
			c-0.07,4.74,1.24,8.91,4.11,12.45c4.79,5.9,10.9,5.03,14.17-1.9c1.67-3.54,3.17-7.17,4.54-10.84
			c11.57-31.04,21.65-62.59,33.05-93.7c10.23-27.92,21.62-55.07,39.41-79.11c6.11-8.25,13.54-15.33,21.49-21.8
			c1.92-1.56,4.61-3.15,7.28-1.49c2.2,1.36,2.86,3.95,2.39,6.32c-2.8,14.14-2.26,28.63-5.36,42.83
			c-2.73,12.48-5.16,25.13-6.93,37.79c-2.72,19.42-6.85,38.6-9.2,58.09c-2.44,20.17-3.06,40.31-2.02,60.55
			c0.22,4.28,2.4,7.62,6.58,8.92c4.51,1.41,6.55-2.1,8.6-5.15c1.16-1.72,2.31-3.49,3.17-5.37c10.05-21.87,19.77-43.89,30.17-65.59
			c4.62-9.65,9.92-19.09,17.49-26.93c0.85-0.88,2.31-1.89,3.31-1.73c1.96,0.3,1.74,2.31,1.74,3.85
			c-0.05,18.16,3.24,36.07,3.59,54.27c0.31,15.76,3.2,31.4,11.75,45.79c7.87,13.24,21.31,18.57,35.17,17.08
			c24.8-2.67,46.11-13.46,64.3-30.33c20.06-18.6,37.58-39.52,54.32-61.06c4.6-5.92,9.33-12.05,12.38-19.12
			C1590.85,502.41,1592.23,500.03,1589.95,498.77z M504.76,404.22c-4.87,13.76-10.08,27.39-15.24,41.04
			c-7.44,19.7-14.98,39.37-22.35,59.1c-1.34,3.58-2.69,7.04-5.61,9.64c-2.76-3.2-1.32-7.05-1.52-10.6
			c-0.24-4.19-0.06-8.41-0.06-12.61c0.7-23.63,2.01-47.24,1.66-70.89c-0.06-4.42,1.03-8.84,1.53-13.27c0.27-2.45,1.6-3.53,3.98-4.1
			c11.78-2.83,23.9-2.79,35.83-4.31C508.82,397.47,505.4,402.41,504.76,404.22z M570.29,356.43c-0.78,4.9-0.59,9.98-0.49,14.97
			c0.09,4.61-1.87,6.29-6.43,6.96c-12.79,1.87-25.77,0.39-38.51,2.66c-4.45,0.79-5.1-0.66-3.52-5.13
			c9.58-27.06,20.15-53.72,31.53-80.07c11.29-26.15,22.11-52.51,33.52-78.61c3.1-7.08,5.78-14.78,10.4-21.19
			c-3.2,13.64-6.62,27.22-9.49,40.92c-3.74,17.88-6.68,35.91-9.91,53.89C573.48,312.58,573.76,334.69,570.29,356.43z M668.55,514.32
			c-8.67,10.56-18.73,19.54-30.85,26.17c-3.84,2.1-7.53,3.03-10.95,0.57c-3.22-2.33-2.29-6.2-1.31-9.5
			c5.75-19.29,17.15-34.9,31.73-48.44c3.22-2.98,7.05-4.34,10.76-2.37c3.85,2.05,7.38,5.01,7,10.43c-0.24,3.45-0.39,7.37,5.17,5.87
			C678.42,504.24,672.94,508.97,668.55,514.32z M951.75,584.19c-1.36,21.29-3.87,41.57-6.01,61.91c-2.33,22.2-7.16,43.9-12.05,65.5
			c-5.17,22.88-12.97,45.12-23.01,66.53c-14.37,30.64-31.38,59.71-51.96,86.48c-17.28,22.47-36.54,43.13-63.55,54.58
			c-20.44,8.66-36.44,2.18-45.11-18.52c-4.9-11.7-5.43-24.03-4.47-36.36c1.09-14.07,4.02-27.87,8.22-41.39
			c6.78-21.86,16.56-42.35,27.82-62.19c15.95-28.09,34.55-54.32,55.05-79.25c17.95-21.84,37.67-42,57.69-61.92
			c14.1-14.03,29.07-27.06,43.84-40.32c3.41-3.06,7.75-8.18,11.77-6.54C954.28,574.46,950.69,580.83,951.75,584.19z"/>
	</g>
</g>
</svg>
